ffmpeg version 4.2.2 Copyright (c) 2000-2019 the FFmpeg developers
  built with gcc 9.2.1 (GCC) 20200122
  configuration: --enable-gpl --enable-version3 --enable-sdl2 --enable-fontconfig --enable-gnutls --enable-iconv --enable-libass --enable-libdav1d --enable-libbluray --enable-libfreetype --enable-libmp3lame --enable-libopencore-amrnb --enable-libopencore-amrwb --enable-libopenjpeg --enable-libopus --enable-libshine --enable-libsnappy --enable-libsoxr --enable-libtheora --enable-libtwolame --enable-libvpx --enable-libwavpack --enable-libwebp --enable-libx264 --enable-libx265 --enable-libxml2 --enable-libzimg --enable-lzma --enable-zlib --enable-gmp --enable-libvidstab --enable-libvorbis --enable-libvo-amrwbenc --enable-libmysofa --enable-libspeex --enable-libxvid --enable-libaom --enable-libmfx --enable-amf --enable-ffnvcodec --enable-cuvid --enable-d3d11va --enable-nvenc --enable-nvdec --enable-dxva2 --enable-avisynth --enable-libopenmpt
  libavutil      56. 31.100 / 56. 31.100
  libavcodec     58. 54.100 / 58. 54.100
  libavformat    58. 29.100 / 58. 29.100
  libavdevice    58.  8.100 / 58.  8.100
  libavfilter     7. 57.100 /  7. 57.100
  libswscale      5.  5.100 /  5.  5.100
  libswresample   3.  5.100 /  3.  5.100
  libpostproc    55.  5.100 / 55.  5.100
Input #0, rawvideo, from 'pipe:':
  Duration: N/A, start: 0.000000, bitrate: 707788 kb/s
    Stream #0:0: Video: rawvideo (RGB[24] / 0x18424752), rgb24, 1280x960, 707788 kb/s, 24 tbr, 24 tbn, 24 tbc
Stream mapping:
  Stream #0:0 -> #0:0 (rawvideo (native) -> h264 (libx264))
[libx264 @ 000001cf7188c240] using cpu capabilities: MMX2 SSE2Fast SSSE3 SSE4.2 AVX FMA3 BMI2 AVX2
[libx264 @ 000001cf7188c240] profile High, level 3.2, 4:2:0, 8-bit
[libx264 @ 000001cf7188c240] 264 - core 159 - H.264/MPEG-4 AVC codec - Copyleft 2003-2019 - http://www.videolan.org/x264.html - options: cabac=1 ref=3 deblock=1:0:0 analyse=0x3:0x113 me=hex subme=7 psy=1 psy_rd=1.00:0.00 mixed_ref=1 me_range=16 chroma_me=1 trellis=1 8x8dct=1 cqm=0 deadzone=21,11 fast_pskip=1 chroma_qp_offset=-2 threads=18 lookahead_threads=3 sliced_threads=0 nr=0 decimate=1 interlaced=0 bluray_compat=0 constrained_intra=0 bframes=3 b_pyramid=2 b_adapt=1 b_bias=0 direct=1 weightb=1 open_gop=0 weightp=2 keyint=250 keyint_min=24 scenecut=40 intra_refresh=0 rc_lookahead=40 rc=crf mbtree=1 crf=23.0 qcomp=0.60 qpmin=0 qpmax=69 qpstep=4 ip_ratio=1.40 aq=1:1.00
Output #0, mp4, to 'output.mp4':
  Metadata:
    encoder         : Lavf58.29.100
    Stream #0:0: Video: h264 (libx264) (avc1 / 0x31637661), yuv420p, 1280x960, q=-1--1, 24 fps, 12288 tbn, 24 tbc
    Metadata:
      encoder         : Lavc58.54.100 libx264
    Side data:
      cpb: bitrate max/min/avg: 0/0/0 buffer size: 0 vbv_delay: -1
frame=   49 fps=0.0 q=0.0 size=       0kB time=00:00:00.00 bitrate=N/A speed=   0x    frame=   88 fps= 87 q=28.0 size=       0kB time=00:00:00.95 bitrate=   0.4kbits/s speed=0.952x    frame=   96 fps= 79 q=-1.0 Lsize=      78kB time=00:00:03.87 bitrate= 165.7kbits/s speed=3.19x    
video:76kB audio:0kB subtitle:0kB other streams:0kB global headers:0kB muxing overhead: 2.524143%
[libx264 @ 000001cf7188c240] frame I:2     Avg QP:12.07  size: 18318
[libx264 @ 000001cf7188c240] frame P:24    Avg QP:19.89  size:  1472
[libx264 @ 000001cf7188c240] frame B:70    Avg QP:31.33  size:    81
[libx264 @ 000001cf7188c240] consecutive B-frames:  2.1%  0.0%  6.2% 91.7%
[libx264 @ 000001cf7188c240] mb I  I16..4: 42.4% 53.3%  4.3%
[libx264 @ 000001cf7188c240] mb P  I16..4:  1.6%  2.1%  0.3%  P16..4:  0.7%  0.3%  0.1%  0.0%  0.0%    skip:94.8%
[libx264 @ 000001cf7188c240] mb B  I16..4:  0.0%  0.0%  0.0%  B16..8:  0.9%  0.0%  0.0%  direct: 0.0%  skip:99.1%  L0:37.7% L1:62.3% BI: 0.0%
[libx264 @ 000001cf7188c240] 8x8 transform intra:53.0% inter:92.3%
[libx264 @ 000001cf7188c240] coded y,uvDC,uvAC intra: 22.7% 0.0% 0.0% inter: 0.1% 0.0% 0.0%
[libx264 @ 000001cf7188c240] i16 v,h,dc,p: 59% 41%  0%  0%
[libx264 @ 000001cf7188c240] i8 v,h,dc,ddl,ddr,vr,hd,vl,hu: 51% 12% 22%  2%  2%  4%  2%  4%  2%
[libx264 @ 000001cf7188c240] i4 v,h,dc,ddl,ddr,vr,hd,vl,hu: 47% 20%  9%  4%  6%  6%  3%  3%  1%
[libx264 @ 000001cf7188c240] i8c dc,h,v,p: 100%  0%  0%  0%
[libx264 @ 000001cf7188c240] Weighted P-Frames: Y:0.0% UV:0.0%
[libx264 @ 000001cf7188c240] ref P L0: 68.8% 14.8% 15.1%  1.3%
[libx264 @ 000001cf7188c240] ref B L0: 39.0% 60.7%  0.3%
[libx264 @ 000001cf7188c240] ref B L1: 95.7%  4.3%
[libx264 @ 000001cf7188c240] kb/s:155.22
